<?xml version="1.0" encoding="UTF-8"?>
<svg id="Ebene_2" data-name="Ebene 2" xmlns="http://www.w3.org/2000/svg" viewBox="0 0 24 24">
  <defs>
    <style>
      .cls-1 {
        fill: #fff;
      }
    </style>
  </defs>
  <path class="cls-1" d="m20.59,18.46c-.62.4-1.26.76-1.93,1.07l-1.61-3.48h3.56v-3.05h-1.4s-.03,0-.05,0h-3.45l.71-1.56h2.75v-2.49H7.52l-2.31-6.02c-.2-.51-.77-.77-1.28-.57l-1.04.4c-.46.18-.69.69-.51,1.15l4.65,12.1-1.71,3.69c-.75-.33-1.48-.72-2.18-1.16l-1.08,1.68c2.91,1.86,6.29,2.85,9.76,2.85s6.93-1.01,9.87-2.92l-1.09-1.68Zm-5.97-5.47h-5.54l-.6-1.56h6.86l-.71,1.56Zm-2.81,8.07c-1.58,0-3.13-.23-4.62-.67l2-4.33h5.65l1.95,4.21c-1.6.52-3.28.8-4.99.8Z"/>
</svg>