<?xml version="1.0" encoding="utf-8"?>
<!-- Generator: Adobe Illustrator 24.1.3, SVG Export Plug-In . SVG Version: 6.00 Build 0)  -->
<svg version="1.1" id="Ebene_1" xmlns="http://www.w3.org/2000/svg" xmlns:xlink="http://www.w3.org/1999/xlink" x="0px" y="0px"
	 viewBox="0 0 46 46" style="enable-background:new 0 0 46 46;" xml:space="preserve" width="26px" height="26px">
<style type="text/css">
	.st0{clip-path:url(#SVGID_2_);fill:none;}
	.st1{clip-path:url(#SVGID_4_);}
	.st2{clip-path:url(#SVGID_6_);}
	.st3{clip-path:url(#SVGID_8_);}
	.st4{clip-path:url(#SVGID_10_);fill:#FFFFFF;}
	.st5{clip-path:url(#SVGID_12_);fill:#FFFFFF;}
	.st6{clip-path:url(#SVGID_14_);fill:#FFFFFF;}
	.st7{clip-path:url(#SVGID_16_);fill:#FFFFFF;}
	.st8{clip-path:url(#SVGID_18_);fill:#FFFFFF;}
</style>
<g>
	<defs>
		<rect id="SVGID_1_" x="5" y="5" width="36" height="36"/>
	</defs>
	<clipPath id="SVGID_2_">
		<use xlink:href="#SVGID_1_"  style="overflow:visible;"/>
	</clipPath>
	<rect class="st0" width="46" height="46"/>
</g>
<g>
	<defs>
		<path id="SVGID_3_" d="M29,13c0,3.31-2.69,6-6,6s-6-2.69-6-6s2.69-6,6-6S29,9.69,29,13"/>
	</defs>
	<clipPath id="SVGID_4_">
		<use xlink:href="#SVGID_3_"  style="overflow:visible;"/>
	</clipPath>
	<rect x="12" y="2" class="st1" width="22" height="22"/>
</g>
<g>
	<defs>
		<path id="SVGID_5_" d="M24.95,39c4.37-0.44,8.73-3.03,13.1-3.47c0.52-0.05,0.95-0.47,0.95-0.99V18.78c0-0.51-0.43-0.94-0.95-0.91
			c-4.37,0.23-8.73,2.61-13.1,2.85C24.43,20.74,24,21.16,24,21.69v16.4C24,38.62,24.43,39.05,24.95,39"/>
	</defs>
	<clipPath id="SVGID_6_">
		<use xlink:href="#SVGID_5_"  style="overflow:visible;"/>
	</clipPath>
	<rect x="19" y="12.86" class="st2" width="25" height="31.14"/>
</g>
<g>
	<defs>
		<path id="SVGID_7_" d="M21.05,39c-4.37-0.44-8.73-3.03-13.1-3.47C7.43,35.47,7,35.05,7,34.53V18.78c0-0.51,0.43-0.94,0.95-0.91
			c4.37,0.23,8.73,2.61,13.1,2.85c0.52,0.03,0.95,0.45,0.95,0.98v16.4C22,38.62,21.57,39.05,21.05,39"/>
	</defs>
	<clipPath id="SVGID_8_">
		<use xlink:href="#SVGID_7_"  style="overflow:visible;"/>
	</clipPath>
	<rect x="2" y="12.86" class="st3" width="25" height="31.14"/>
</g>
<g>
	<defs>
		<path id="SVGID_9_" d="M37.22,22.72c-3.76,0-7.52,2.26-11.28,2.26v-2.05c3.76,0,7.52-2.26,11.28-2.26V22.72z"/>
	</defs>
	<clipPath id="SVGID_10_">
		<use xlink:href="#SVGID_9_"  style="overflow:visible;"/>
	</clipPath>
	<rect x="20.94" y="15.67" class="st4" width="21.28" height="14.31"/>
</g>
<g>
	<defs>
		<path id="SVGID_11_" d="M37.22,26.82c-3.76,0-7.52,2.26-11.28,2.26v-2.05c3.76,0,7.52-2.26,11.28-2.26V26.82z"/>
	</defs>
	<clipPath id="SVGID_12_">
		<use xlink:href="#SVGID_11_"  style="overflow:visible;"/>
	</clipPath>
	<rect x="20.94" y="19.77" class="st5" width="21.28" height="14.31"/>
</g>
<g>
	<defs>
		<path id="SVGID_13_" d="M33.91,31.39c-2.66,0.66-5.31,1.79-7.97,1.79v-2.05c2.66,0,5.31-1.13,7.97-1.79V31.39z"/>
	</defs>
	<clipPath id="SVGID_14_">
		<use xlink:href="#SVGID_13_"  style="overflow:visible;"/>
	</clipPath>
	<rect x="20.94" y="24.34" class="st6" width="17.97" height="13.84"/>
</g>
<g>
	<defs>
		<path id="SVGID_15_" d="M19.77,26.28l-5.38,5.38c-0.4,0.4-1.06,0.4-1.46,0l-0.25-0.25c-0.4-0.4-0.4-1.05,0-1.46l5.38-5.38
			c0.4-0.4,1.05-0.4,1.46,0l0.25,0.25C20.17,25.23,20.17,25.88,19.77,26.28"/>
	</defs>
	<clipPath id="SVGID_16_">
		<use xlink:href="#SVGID_15_"  style="overflow:visible;"/>
	</clipPath>
	<rect x="7.39" y="19.27" class="st7" width="17.69" height="17.69"/>
</g>
<g>
	<defs>
		<path id="SVGID_17_" d="M9.75,28.45l3.31,3.31c0.34,0.34,0.9,0.34,1.24,0l0.47-0.47c0.34-0.34,0.34-0.9,0-1.24l-3.31-3.31
			c-0.34-0.34-0.9-0.34-1.24,0l-0.47,0.47C9.41,27.56,9.41,28.11,9.75,28.45"/>
	</defs>
	<clipPath id="SVGID_18_">
		<use xlink:href="#SVGID_17_"  style="overflow:visible;"/>
	</clipPath>
	<rect x="4.49" y="21.49" class="st8" width="15.53" height="15.53"/>
</g>
</svg>
